<svg width="143" height="40" viewBox="0 0 143 40" fill="none" xmlns="http://www.w3.org/2000/svg">
<path d="M50.8705 13.5947C52.0937 13.5947 52.909 14.41 52.909 15.6333C52.909 16.8565 52.0966 17.6718 50.8705 17.6718C49.6444 17.6718 48.8325 16.8565 48.8325 15.6338C48.8325 14.4112 49.6478 13.5947 50.8705 13.5947ZM48.8325 29.319L49.124 19.128L52.9107 18.8371L53.1999 29.319H48.8325Z" fill="white"/>
<path d="M60.2619 35.3054C57.6416 35.3054 56.4752 34.7231 56.4752 34.7231L56.7661 30.6466C56.7661 30.6466 57.6399 30.938 59.387 30.938C61.017 30.938 61.5098 29.977 61.6579 28.5794C61.192 29.0745 60.4346 29.4819 59.2412 29.4819C56.3294 29.4819 54 27.4439 54 23.9498C54 21.038 56.0385 19.2909 58.8046 19.2909C60.4931 19.2909 61.4542 20.2812 61.9201 21.213L62.0073 19.2909L65.794 19L66.0844 28.3171C66.3471 32.976 64.3384 35.3054 60.2619 35.3054ZM61.7761 25.5815L61.8633 23.0191C61.5431 22.7569 61.0187 22.4953 60.2619 22.4953C59.3887 22.4953 58.3685 22.9319 58.3685 24.2424C58.3685 25.698 59.3881 26.2803 60.2619 26.2803C60.7858 26.2792 61.3681 25.959 61.7761 25.5815Z" fill="white"/>
<path d="M68.8935 13.5947C70.1162 13.5947 70.9315 14.41 70.9315 15.6333C70.9315 16.8565 70.1162 17.6718 68.8935 17.6718C67.6709 17.6718 66.855 16.8565 66.855 15.6338C66.855 14.4112 67.6703 13.5947 68.8935 13.5947ZM66.855 29.3155L67.1465 19.1245L70.9332 18.8337L71.2224 29.319L66.855 29.3155Z" fill="white"/>
<path d="M71.8047 15.633L72.9109 15.6037L72.9683 13.5956L76.755 13.3047L76.7843 15.4276L78.2691 15.3404L78.2118 18.2521H76.8434L77.0459 29.3187H72.6779L72.8822 18.2544H71.8047V15.633Z" fill="white"/>
<path d="M85.8683 28.3281C85.1987 28.9684 84.2377 29.3178 83.2187 29.3178C80.3069 29.3178 77.978 27.2798 77.978 23.7857C77.978 20.8739 80.016 19.1268 82.782 19.1268C84.6754 19.1268 85.6646 20.3793 86.0433 21.369L86.1305 19.1268L89.9172 18.8359L90.207 29.3189H85.839L85.8683 28.3281ZM85.9555 25.2126L86.0128 22.9704C85.5176 22.5477 84.8852 22.32 84.2342 22.3301C83.361 22.3301 82.3408 22.7667 82.3408 24.0772C82.3408 25.5328 83.3598 26.1151 84.2342 26.1151C84.8785 26.1151 85.5464 25.6785 85.9555 25.2126Z" fill="white"/>
<path d="M91.0801 29.3193L91.371 13.5985L95.1577 13.3076L95.4475 29.3193H91.0801Z" fill="white"/>
<path d="M96.6494 29.3193L100.144 13.5985L105.384 13.3076L109.171 29.3216H104.513L104.193 27.2836H101.572L101.308 29.3193H96.6494ZM103.696 24.0787L102.764 17.9642L101.978 24.0787H103.696Z" fill="#FFB800"/>
<path d="M109.956 34.8496L110.247 19.1288L114.034 18.8379L114.063 21.429C114.442 20.41 115.431 19.1288 117.382 19.1288C120.148 19.1288 122.186 20.8759 122.186 23.7876C122.186 27.2818 119.857 29.3198 116.946 29.3198C115.868 29.3198 114.88 28.9411 114.209 28.2423L114.324 34.8519L109.956 34.8496ZM114.091 22.9993L114.148 25.1537C114.527 25.6196 115.254 26.1148 115.927 26.1148C116.8 26.1148 117.82 25.5324 117.82 24.0768C117.82 22.7664 116.801 22.3297 115.927 22.3297C115.255 22.3295 114.605 22.5667 114.091 22.9993Z" fill="#FFB800"/>
<path d="M128.27 18.8359C131.472 18.8359 133.219 21.1654 133.219 23.7857L127.92 25.6791C128.357 26.145 128.998 26.4066 129.871 26.4066C131.472 26.4066 132.637 25.8242 132.637 25.8242L132.929 28.736C132.929 28.736 131.327 29.6098 128.998 29.6098C125.211 29.6098 122.883 27.2804 122.883 23.7863C122.883 20.8739 125.038 18.8359 128.27 18.8359ZM130.308 22.9096C130.279 22.8522 130.017 21.7449 128.852 21.7449C127.687 21.7449 127.251 22.6181 127.251 23.753L130.308 22.9096Z" fill="#FFB800"/>
<path d="M137.529 29.6093C134.617 29.6093 134.035 29.0269 134.035 29.0269V25.8237C134.035 25.8237 134.617 26.1151 136.655 26.1151C137.82 26.1151 138.402 25.9694 138.402 25.5328C138.402 24.8047 134.035 24.9504 134.035 22.0386C134.035 19.7092 135.782 18.8359 138.694 18.8359C140.441 18.8359 141.314 19.1268 141.314 19.1268V22.621C140.652 22.4257 139.966 22.3277 139.276 22.3301C137.82 22.3301 137.529 22.621 137.529 22.9124C137.529 24.0772 142.187 23.7857 142.187 26.406C142.187 28.1531 140.732 29.6093 137.529 29.6093Z" fill="#FFB800"/>
<path d="M13.1852 35.4749L13.1812 35.4697C13.1826 35.4713 13.184 35.4731 13.1852 35.4749Z" fill="black"/>
<path d="M20.0476 19.9669C20.0811 20.0256 20.1091 20.0873 20.1314 20.1511C20.1093 20.0873 20.0814 20.0257 20.0482 19.9669H20.0476ZM19.5175 19.8258C19.2984 19.793 19.0774 19.7739 18.8559 19.7684C19.0774 19.774 19.2983 19.793 19.5175 19.8252V19.8258ZM18.8559 19.7684C18.8054 19.7684 18.7544 19.7655 18.7022 19.7649C18.7544 19.7632 18.8054 19.7644 18.8559 19.7661V19.7684ZM13.4971 20.6055L13.3628 20.6474L13.4971 20.6061C15.3245 20.0478 17.3252 19.7454 18.7022 19.7649C17.3269 19.7414 15.3245 20.0449 13.4971 20.6032V20.6055ZM13.181 35.4697L13.185 35.4748C13.1839 35.4724 13.1825 35.4701 13.181 35.4679V35.4697ZM13.2957 20.6669C13.2097 20.6944 13.127 20.7214 13.0479 20.7484C13.1288 20.7208 13.2114 20.6933 13.2974 20.6657L13.2957 20.6669ZM12.6439 26.6448C12.5734 26.5692 12.512 26.4856 12.4609 26.3958C12.5116 26.4859 12.573 26.5696 12.6439 26.6448ZM12.4603 26.3952L12.407 26.3028C12.4248 26.3355 12.4431 26.3665 12.4603 26.3929V26.3952ZM12.3198 26.1428C12.3003 26.1049 12.2802 26.0653 12.2624 26.0246C12.2779 26.0659 12.3003 26.106 12.3198 26.1428ZM12.2624 26.024C12.2217 25.942 12.1803 25.8519 12.1379 25.7606C12.1769 25.8542 12.2205 25.942 12.2595 26.024H12.2624ZM12.1052 25.6889C12.0736 25.6172 12.0415 25.5426 12.0088 25.4657C12.0381 25.5426 12.0702 25.6172 12.1023 25.6889H12.1052Z" fill="#0C0B0C"/>
<path d="M38.642 13.0121C36.2167 13.0121 35.0388 13.2617 34.8765 13.299C34.7393 13.1571 34.5908 13.0266 34.4324 12.9089C32.998 11.8492 31.2085 13.3151 30.1522 14.5022C29.2147 10.7653 27.1073 10.3138 25.6305 9.81004C27.9255 7.59938 28.3127 4.90504 27.3288 3.62672C27.202 3.4632 26.7349 3.51886 26.6443 3.6927C26.2369 4.48276 25.5501 5.48855 23.5684 5.95042C25.4394 4.41276 24.2276 0.401667 21.2791 0.00290934C21.0496 -0.0280732 20.6113 0.190526 20.5906 0.557153C20.5338 1.46884 20.0266 3.3278 17.155 5.23667C17.155 5.23667 17.0305 3.84475 16.1636 3.39665C15.7126 3.16715 15.5296 3.62959 15.463 3.84819C15.0218 5.28257 12.7664 8.12092 10.4553 10.2811C8.95667 11.1928 5.18253 14.4448 6.29331 18.4995C4.70459 17.6274 2.73146 17.2269 1.23512 19.1576C-0.970957 22.0011 -0.194671 29.4082 3.34652 31.6935C3.92773 32.0676 5.6989 31.5925 4.99663 31.1197C3.36718 30.0296 0.433013 26.1998 2.69073 22.7946C4.94844 19.3894 9.36862 27.6417 8.74208 28.36C8.4925 28.6469 7.13558 28.7955 5.91865 28.0966C4.82106 27.4655 4.31215 25.7512 3.95642 25.7632C2.93744 25.7993 4.31157 30.6831 8.92396 31.0159C9.29231 31.0354 9.50402 31.192 9.60845 31.4118C9.61001 31.4097 9.61225 31.4083 9.61476 31.4078C10.1811 33.3964 11.1593 35.6134 12.8507 37.2732C14.2604 38.6571 18.1585 40.807 23.9086 39.6887C26.9088 39.1081 28.5727 38.0357 29.3713 37.369C31.5866 35.8371 32.2573 33.8342 32.5809 31.9758C33.0192 29.4513 32.4197 27.294 31.5831 25.3369C31.5952 25.3128 31.6072 25.2887 31.6193 25.2629C32.0714 25.4476 32.652 25.2118 32.9687 25.0173C34.8547 22.9122 34.7193 19.5328 34.0285 19.6126C33.2126 19.7073 33.593 21.0275 32.9653 21.977C32.7932 22.2364 32.3187 22.4733 32.0146 22.7005C32.0685 20.9729 32.0312 19.6241 31.7139 19.2368C31.3439 18.7812 31.0048 18.5443 30.3088 18.3153C30.3427 18.0824 30.3662 17.8494 30.3783 17.6188C30.3828 17.5236 30.3857 17.4295 30.3874 17.3365C31.1442 16.0823 33.1133 15.2395 34.2482 16.3726C36.5231 18.647 35.5764 22.8353 34.7118 24.6765C34.6545 24.8135 34.5864 24.9457 34.5081 25.0718C34.2293 25.4654 34.6464 25.641 34.8592 25.5176C35.2184 25.3099 35.53 24.9938 35.7945 24.595L35.7015 29.3187H38.9335C45.6303 29.3187 47.9591 25.6794 47.9591 21.3115C47.9591 16.2154 44.4656 13.0121 38.642 13.0121ZM12.9993 14.3846C13.9242 13.7643 14.7929 13.4138 15.5996 13.2663C18.5555 12.7241 20.6715 14.9095 21.624 16.4627C21.8288 16.7989 22.2189 16.5361 22.3779 16.1357C22.8856 14.8527 23.9562 13.692 25.3442 13.439C25.7429 13.367 26.1516 13.3705 26.549 13.4493C28.7241 13.8739 28.9324 14.9348 29.1464 17.1386C29.1607 17.29 29.1516 17.7559 29.1464 18.0394C27.9484 17.8443 26.6603 17.8747 25.7406 18.0635C24.7744 18.2585 23.9826 18.5798 23.8438 19.1295C23.7101 19.6625 23.8306 20.7096 24.044 21.8043C23.394 21.6081 22.5288 21.5748 21.7003 22.0723C21.6986 21.1815 21.5982 20.2936 21.4008 19.425C21.3153 19.0612 20.8947 18.698 20.8655 18.6791C19.232 17.8133 15.3494 18.5041 13.1376 19.1794C12.06 19.5151 11.0034 19.9147 9.97335 20.3762C9.71918 18.3073 10.4765 16.0811 12.9993 14.3846ZM12.4611 26.3955C12.4439 26.3668 12.4256 26.3381 12.4078 26.3031C12.3797 26.2538 12.3504 26.1998 12.3206 26.143C12.3011 26.1052 12.281 26.0661 12.2632 26.0248C12.2225 25.9428 12.1806 25.8527 12.1387 25.7615L12.106 25.6898C12.0739 25.618 12.0417 25.5435 12.0096 25.4666C11.8771 25.1504 11.7434 24.7947 11.6246 24.4275C11.6108 24.3873 11.5982 24.3466 11.5856 24.3059C11.5609 24.2278 11.5374 24.1492 11.5145 24.0706C11.5018 24.0276 11.4898 23.9846 11.4777 23.9415C11.4657 23.8985 11.4531 23.8515 11.441 23.8067C11.429 23.762 11.4158 23.7109 11.4043 23.6627C11.3641 23.5015 11.3286 23.3414 11.2993 23.1848C11.2901 23.1371 11.2821 23.0895 11.274 23.0425C11.2012 22.6024 11.1805 22.1991 11.2419 21.8864C11.2471 21.8588 11.2534 21.8319 11.2603 21.8055C11.2603 21.7974 11.2649 21.79 11.2666 21.7819C11.2683 21.7739 11.2723 21.7607 11.2758 21.7504C11.2964 21.6824 11.3243 21.6168 11.359 21.5547C11.4462 21.4601 11.8002 21.2145 12.6161 20.9047C12.6493 20.8915 12.6832 20.8789 12.7182 20.8662L12.8806 20.8089L12.9953 20.7693L13.0527 20.7492C13.1319 20.7222 13.2145 20.6953 13.3005 20.6677L13.3659 20.6471L13.5002 20.6052C15.397 20.0257 17.4797 19.7205 18.859 19.7681C19.0805 19.7736 19.3015 19.7927 19.5206 19.8254C19.5808 19.8352 19.6382 19.8455 19.6927 19.8576L19.7725 19.8759C19.7983 19.8822 19.8229 19.8891 19.8476 19.896C19.8723 19.9029 19.8958 19.9104 19.9188 19.9178C19.9417 19.9253 19.9641 19.9333 19.9853 19.9413C20.0071 19.9494 20.0278 19.958 20.0479 19.9666C20.0811 20.0254 20.1089 20.087 20.131 20.1508C20.1391 20.172 20.1471 20.1949 20.1546 20.2185C20.162 20.242 20.1706 20.2672 20.1781 20.2931C20.1815 20.3063 20.1856 20.3189 20.1896 20.3326C20.2051 20.386 20.2206 20.4434 20.2355 20.5048C20.2739 20.6597 20.3106 20.8375 20.3451 21.032C20.3502 21.0607 20.3554 21.0894 20.3605 21.1204C20.3657 21.1514 20.3709 21.1818 20.3755 21.2134C20.3801 21.2449 20.3858 21.2765 20.3904 21.308C20.395 21.3396 20.3996 21.3654 20.4036 21.397C20.4076 21.4285 20.4122 21.4543 20.4168 21.4865C20.4214 21.5186 20.426 21.5513 20.43 21.5846L20.442 21.6798C20.4466 21.7119 20.4506 21.7446 20.4541 21.7773C20.4686 21.8971 20.4818 22.0191 20.4937 22.1434C20.4971 22.1778 20.5005 22.2123 20.5034 22.2473C20.5252 22.4865 20.5419 22.7304 20.5516 22.9696C20.5516 22.9759 20.5516 22.9817 20.5516 22.9874C20.5929 23.9742 20.5281 24.8934 20.271 25.2187C20.2251 25.2572 20.1718 25.2979 20.1115 25.3409C20.0966 25.3518 20.0806 25.3627 20.0645 25.3731C20.0169 25.4058 19.9652 25.4396 19.9102 25.4735C19.8734 25.497 19.8356 25.5199 19.7954 25.5435C19.7558 25.567 19.7145 25.5911 19.6715 25.6146C19.6284 25.6393 19.5843 25.6634 19.5384 25.6875C17.9669 26.5263 14.755 27.5808 12.7107 26.6864C12.6854 26.6787 12.6625 26.6647 12.6442 26.6456C12.5732 26.57 12.5117 26.486 12.4611 26.3955ZM13.1812 35.4694C13.1827 35.4715 13.1841 35.4738 13.1852 35.4762L13.1812 35.4694ZM31.4546 31.8278C31.1241 33.728 30.4632 35.3007 28.6673 36.4941C25.471 38.3725 21.5339 38.4741 19.6531 38.205C13.46 37.3197 12.6126 31.297 12.6677 27.722C14.837 28.5052 18.1631 27.4391 19.9434 26.501C20.1494 26.7701 20.5746 27.0369 21.1259 27.1953C21.4983 27.302 21.9343 26.5992 22.2901 26.703C22.9849 26.9073 23.3573 27.5636 23.4077 27.4282C23.542 27.0696 22.5666 25.812 22.2207 25.6921C21.9539 25.602 21.5321 25.6077 21.115 25.6662C21.2711 25.419 21.4713 24.7442 21.5935 23.8268C22.3968 23.1532 23.8702 23.1044 24.3475 23.1727C24.5484 23.976 24.7606 24.6932 24.9161 25.1154C24.9776 25.2699 25.0802 25.4047 25.2128 25.505C25.0846 25.5285 24.9598 25.568 24.8415 25.6226C24.5329 25.7948 23.9396 27.0874 24.0957 27.3927C24.1387 27.4764 24.3435 26.9405 24.8886 26.6192C25.1072 26.4907 25.5088 26.7489 25.7773 26.5544C26.0064 26.3923 26.215 26.2031 26.3987 25.991C27.735 26.2807 29.6117 26.2015 30.6106 26.026C31.3335 27.7696 31.8293 29.6727 31.4546 31.8278ZM30.6468 19.8306C30.843 20.483 30.9761 23.521 30.7168 24.6329C30.7168 24.6329 30.602 25.0345 30.2543 25.2135C28.8131 25.8814 25.9954 25.0988 25.8284 24.6467C25.2954 23.1894 24.95 20.4841 25.3195 19.7331C25.3849 19.69 25.5794 19.5965 25.9632 19.5185C27.4693 19.2127 29.9497 19.0819 30.6468 19.8306ZM39.9811 25.0959L39.809 17.5253C41.789 17.9619 43.3032 19.2431 43.3032 21.456C43.2716 23.6386 42.1069 25.0959 39.9811 25.0959Z" fill="white"/>
</svg>
