<svg width="214" height="61" viewBox="0 0 214 61" fill="none" xmlns="http://www.w3.org/2000/svg">
<path d="M76.6653 21.3379C78.5002 21.3379 79.7232 22.5608 79.7232 24.3957C79.7232 26.2306 78.5045 27.4535 76.6653 27.4535C74.8262 27.4535 73.6084 26.2306 73.6084 24.3966C73.6084 22.5626 74.8314 21.3379 76.6653 21.3379ZM73.6084 44.9242L74.0456 29.6378L79.7257 29.2014L80.1595 44.9242H73.6084Z" fill="black"/>
<path d="M90.598 53.6593C86.6675 53.6593 84.9178 52.7858 84.9178 52.7858L85.3542 46.671C85.3542 46.671 86.6649 47.1082 89.2855 47.1082C91.7306 47.1082 92.4698 45.6667 92.6919 43.5702C91.993 44.3129 90.857 44.924 89.0669 44.924C84.6992 44.924 81.2051 41.867 81.2051 36.6258C81.2051 32.2581 84.2629 29.6375 88.412 29.6375C90.9448 29.6375 92.3864 31.123 93.0852 32.5206L93.216 29.6375L98.8961 29.2012L99.3316 43.1769C99.7258 50.1652 96.7127 53.6593 90.598 53.6593ZM92.8692 39.0734L93 35.2299C92.5197 34.8366 91.7331 34.4441 90.598 34.4441C89.2881 34.4441 87.7579 35.099 87.7579 37.0647C87.7579 39.2481 89.2872 40.1217 90.598 40.1217C91.3837 40.1199 92.2573 39.6397 92.8692 39.0734Z" fill="black"/>
<path d="M103.7 21.3379C105.534 21.3379 106.757 22.5608 106.757 24.3957C106.757 26.2306 105.534 27.4535 103.7 27.4535C101.866 27.4535 100.642 26.2306 100.642 24.3966C100.642 22.5626 101.865 21.3379 103.7 21.3379ZM100.642 44.9191L101.079 29.6326L106.759 29.1963L107.193 44.9242L100.642 44.9191Z" fill="black"/>
<path d="M108.067 24.3967L109.726 24.3528L109.812 21.3406L115.492 20.9043L115.536 24.0886L117.763 23.9578L117.677 28.3255H115.625L115.928 44.9253H109.377L109.683 28.3289H108.067V24.3967Z" fill="black"/>
<path d="M129.162 43.4394C128.157 44.3998 126.716 44.924 125.187 44.924C120.819 44.924 117.326 41.867 117.326 36.6258C117.326 32.2581 120.383 29.6375 124.532 29.6375C127.372 29.6375 128.856 31.5163 129.424 33.0008L129.555 29.6375L135.235 29.2012L135.67 44.9257H129.118L129.162 43.4394ZM129.292 38.7662L129.378 35.4029C128.636 34.7688 127.687 34.4273 126.71 34.4424C125.401 34.4424 123.87 35.0973 123.87 37.063C123.87 39.2464 125.399 40.1199 126.71 40.1199C127.677 40.1199 128.679 39.465 129.292 38.7662V38.7662Z" fill="black"/>
<path d="M136.98 44.9257L137.416 21.3445L143.096 20.9082L143.531 44.9257H136.98Z" fill="black"/>
<path d="M145.334 44.9257L150.575 21.3445L158.436 20.9082L164.116 44.9292H157.129L156.649 41.8722H152.717L152.322 44.9257H145.334ZM155.903 37.0648L154.506 27.8931L153.327 37.0648H155.903Z" fill="#FF9900"/>
<path d="M165.293 53.2226L165.73 29.6414L171.41 29.2051L171.454 33.0917C172.022 31.5632 173.507 29.6414 176.433 29.6414C180.582 29.6414 183.639 32.262 183.639 36.6297C183.639 41.8709 180.146 44.9279 175.778 44.9279C174.162 44.9279 172.68 44.3599 171.673 43.3116L171.845 53.226L165.293 53.2226ZM171.496 35.4472L171.582 38.6789C172.15 39.3777 173.241 40.1204 174.25 40.1204C175.559 40.1204 177.09 39.2469 177.09 37.0635C177.09 35.0978 175.561 34.4429 174.25 34.4429C173.242 34.4425 172.266 34.7982 171.496 35.4472Z" fill="#FF9900"/>
<path d="M192.764 29.2012C197.568 29.2012 200.189 32.6953 200.189 36.6258L192.24 39.4659C192.895 40.1647 193.856 40.5571 195.166 40.5571C197.568 40.5571 199.315 39.6836 199.315 39.6836L199.752 44.0513C199.752 44.0513 197.35 45.362 193.856 45.362C188.176 45.362 184.685 41.8679 184.685 36.6267C184.685 32.2581 187.916 29.2012 192.764 29.2012ZM195.822 35.3116C195.778 35.2256 195.385 33.5645 193.638 33.5645C191.891 33.5645 191.236 34.8744 191.236 36.5767L195.822 35.3116Z" fill="#FF9900"/>
<path d="M206.653 45.3612C202.285 45.3612 201.412 44.4876 201.412 44.4876V39.6827C201.412 39.6827 202.285 40.1199 205.342 40.1199C207.089 40.1199 207.963 39.9013 207.963 39.2464C207.963 38.1543 201.412 38.3729 201.412 34.0052C201.412 30.511 204.032 29.2012 208.4 29.2012C211.021 29.2012 212.33 29.6375 212.33 29.6375V34.8787C211.338 34.5858 210.308 34.4389 209.273 34.4424C207.089 34.4424 206.653 34.8787 206.653 35.3159C206.653 37.063 213.64 36.6258 213.64 40.5563C213.64 43.1769 211.457 45.3612 206.653 45.3612Z" fill="#FF9900"/>
<path d="M20.1374 54.1581L20.1313 54.1504C20.1335 54.1528 20.1356 54.1554 20.1374 54.1581Z" fill="black"/>
<path d="M30.7672 38.7726C30.6992 38.8303 30.6191 38.8914 30.5296 38.9559C30.5073 38.9723 30.4832 38.9886 30.4591 39.0041C30.3876 39.0532 30.3102 39.1031 30.2276 39.1547L30.0554 39.2597L29.8695 39.3664L29.6699 39.4757C27.3126 40.734 22.4948 42.3158 19.4284 40.9741C19.3904 40.9626 19.3561 40.9416 19.3286 40.913C19.2222 40.8001 19.13 40.6747 19.054 40.5395C19.0282 40.4964 19.0007 40.4534 18.974 40.4009C18.9318 40.3269 18.8879 40.246 18.8432 40.1608C18.8139 40.104 18.7838 40.0455 18.7571 39.9835C18.696 39.8604 18.6332 39.7253 18.5704 39.5885L18.5213 39.4809C18.4731 39.3733 18.4249 39.2614 18.3767 39.1461C18.1779 38.6719 17.9774 38.1383 17.7992 37.5875C17.7786 37.5273 17.7596 37.4662 17.7407 37.4051C17.7037 37.288 17.6684 37.1701 17.634 37.0522C17.6151 36.9877 17.597 36.9231 17.5789 36.8586C17.5608 36.794 17.5419 36.7235 17.5238 36.6563C17.5058 36.5892 17.486 36.5126 17.4688 36.4403C17.4085 36.1985 17.3552 35.9584 17.3113 35.7234C17.2975 35.652 17.2854 35.5805 17.2734 35.51C17.1641 34.8499 17.1331 34.2448 17.2252 33.7758C17.2338 33.7345 17.2424 33.694 17.2527 33.6545C17.2527 33.6424 17.2596 33.6312 17.2622 33.6192C17.2648 33.6071 17.2717 33.5873 17.276 33.5718C17.307 33.4698 17.3488 33.3714 17.4008 33.2784C17.5316 33.1364 18.0626 32.768 19.2864 32.3033L19.4396 32.2456L19.6831 32.1595L19.8553 32.1002L19.9413 32.07C20.0601 32.0296 20.184 31.9891 20.3131 31.9478L20.4112 31.9168L20.6126 31.854C23.3537 31.0166 26.3547 30.5631 28.4202 30.5932C28.4986 30.5932 28.5752 30.5932 28.6509 30.5984C28.9831 30.6066 29.3145 30.6354 29.6432 30.6844C29.7336 30.6991 29.8196 30.7146 29.9014 30.7326C29.9427 30.7412 29.9823 30.7507 30.021 30.7602L30.1337 30.7903L30.2405 30.823L30.3403 30.8583C30.373 30.8703 30.404 30.8832 30.4341 30.8961C30.4839 30.9843 30.5257 31.0768 30.5589 31.1724C30.5709 31.2043 30.583 31.2387 30.5942 31.274C30.6054 31.3092 30.6183 31.3471 30.6295 31.3858C30.6346 31.4056 30.6407 31.4246 30.6467 31.4452C30.6699 31.5253 30.6932 31.6113 30.7155 31.7034C30.7732 31.9358 30.8283 32.2026 30.8799 32.4943L30.9031 32.6269C30.9109 32.6725 30.9186 32.719 30.9255 32.7663C30.9324 32.8136 30.941 32.8601 30.9479 32.9083C30.9548 32.9565 30.9617 32.9944 30.9677 33.0417C30.9737 33.089 30.9806 33.1278 30.9875 33.1759C30.9944 33.2241 31.0013 33.2732 31.0073 33.3231L31.0254 33.466C31.0322 33.5142 31.0383 33.5632 31.0434 33.6123C31.0652 33.7919 31.085 33.9749 31.1028 34.1614C31.108 34.213 31.1131 34.2646 31.1174 34.3171C31.1493 34.676 31.1742 35.0409 31.1897 35.4007C31.1897 35.4101 31.1897 35.4187 31.1897 35.4273C31.2508 36.905 31.1536 38.2846 30.7672 38.7726Z" fill="#FF9900"/>
<path d="M30.4313 30.8966C30.4814 30.9847 30.5235 31.0772 30.5569 31.1729C30.5237 31.0773 30.482 30.9848 30.4322 30.8966H30.4313ZM29.6361 30.6849C29.3074 30.6359 28.976 30.6071 28.6438 30.5989C28.976 30.6073 29.3073 30.6357 29.6361 30.6841V30.6849ZM28.6438 30.5989C28.568 30.5989 28.4914 30.5946 28.4131 30.5937C28.4914 30.5911 28.568 30.5928 28.6438 30.5954V30.5989ZM20.6055 31.8545L20.4041 31.9173L20.6055 31.8554C23.3466 31.018 26.3476 30.5644 28.4131 30.5937C26.3502 30.5584 23.3466 31.0137 20.6055 31.8511V31.8545ZM20.1313 54.1508L20.1373 54.1585C20.1356 54.1549 20.1336 54.1515 20.1313 54.1482V54.1508ZM20.3034 31.9466C20.1743 31.9879 20.0504 32.0284 19.9316 32.0688C20.053 32.0275 20.1769 31.9862 20.306 31.9449L20.3034 31.9466ZM19.3258 40.9135C19.22 40.8001 19.1279 40.6747 19.0512 40.54C19.1272 40.6752 19.2194 40.8006 19.3258 40.9135ZM19.0504 40.5391L18.9703 40.4006C18.997 40.4496 19.0245 40.4961 19.0504 40.5357V40.5391ZM18.8395 40.1604C18.8102 40.1036 18.7801 40.0443 18.7534 39.9831C18.7767 40.0451 18.8102 40.1054 18.8395 40.1604ZM18.7534 39.9823C18.6923 39.8592 18.6304 39.7241 18.5667 39.5873C18.6252 39.7275 18.6906 39.8592 18.7491 39.9823H18.7534ZM18.5176 39.4797C18.4703 39.3721 18.4221 39.2602 18.373 39.1449C18.4169 39.2602 18.4651 39.3721 18.5133 39.4797H18.5176Z" fill="#0C0B0C"/>
<path d="M58.3226 20.4655C54.6847 20.4655 52.9179 20.8399 52.6743 20.8958C52.4686 20.6829 52.2458 20.4871 52.0082 20.3106C49.8566 18.721 47.1723 20.9199 45.5879 22.7005C44.1816 17.0953 41.0206 16.418 38.8053 15.6623C42.2478 12.3463 42.8287 8.30483 41.3528 6.38735C41.1626 6.14207 40.462 6.22555 40.326 6.48632C39.715 7.67141 38.6848 9.18009 35.7122 9.87289C38.5187 7.56641 36.7011 1.54977 32.2783 0.95163C31.9341 0.905156 31.2765 1.23305 31.2456 1.783C31.1604 3.15053 30.3996 5.93896 26.0921 8.80227C26.0921 8.80227 25.9054 6.71439 24.605 6.04224C23.9285 5.69799 23.654 6.39165 23.5541 6.71955C22.8923 8.87112 19.5092 13.1286 16.0426 16.3689C13.7946 17.7364 8.13341 22.6145 9.79959 28.6965C7.41651 27.3884 4.45681 26.7877 2.2123 29.6837C-1.09682 33.9489 0.0676128 45.0596 5.3794 48.4875C6.25122 49.0486 8.90797 48.336 7.85457 47.6269C5.41039 45.9917 1.00914 40.247 4.39571 35.1392C7.78228 30.0314 14.4125 42.4098 13.4727 43.4873C13.0984 43.9176 11.063 44.1405 9.2376 43.0922C7.59122 42.1455 6.82784 39.574 6.29425 39.5921C4.76578 39.6463 6.82698 46.9719 13.7456 47.4711C14.2981 47.5004 14.6157 47.7353 14.7723 48.0649C14.7746 48.0619 14.778 48.0597 14.7818 48.0589C15.6312 51.0419 17.0986 54.3673 19.6357 56.8571C21.7503 58.9329 27.5974 62.1577 36.2226 60.4803C40.7228 59.6094 43.2186 58.0009 44.4166 57.0008C47.7395 54.703 48.7455 51.6985 49.2309 48.9109C49.8885 45.1242 48.9891 41.8882 47.7343 38.9526C47.7524 38.9165 47.7705 38.8803 47.7885 38.8416C48.4667 39.1187 49.3377 38.765 49.8127 38.4733C52.6416 35.3156 52.4385 30.2465 51.4023 30.3661C50.1785 30.5081 50.7491 32.4885 49.8076 33.9128C49.5494 34.3018 48.8376 34.6572 48.3815 34.998C48.4624 32.4067 48.4065 30.3834 47.9305 29.8024C47.3754 29.1191 46.8668 28.7637 45.8229 28.4203C45.8736 28.0709 45.9089 27.7214 45.927 27.3755C45.9339 27.2326 45.9382 27.0915 45.9408 26.952C47.0759 25.0707 50.0296 23.8064 51.7319 25.5062C55.1443 28.9177 53.7243 35.2003 52.4273 37.962C52.3413 38.1675 52.2392 38.3657 52.1218 38.555C51.7035 39.1454 52.3292 39.4088 52.6485 39.2237C53.1872 38.9122 53.6546 38.438 54.0513 37.8398L53.9119 44.9254H58.7598C68.8051 44.9254 72.2983 39.4664 72.2983 32.9145C72.2983 25.2704 67.058 20.4655 58.3226 20.4655ZM19.8586 22.5241C21.2459 21.5938 22.5489 21.0679 23.759 20.8467C28.1929 20.0335 31.3669 23.3116 32.7955 25.6413C33.1028 26.1456 33.688 25.7515 33.9264 25.1507C34.6881 23.2264 36.294 21.4853 38.3759 21.1058C38.9739 20.9977 39.587 21.003 40.1832 21.1213C43.4458 21.7582 43.7582 23.3494 44.0792 26.6551C44.1007 26.8823 44.087 27.5812 44.0792 28.0063C42.2822 27.7137 40.3501 27.7593 38.9705 28.0424C37.5212 28.3351 36.3336 28.817 36.1253 29.6415C35.9248 30.441 36.1055 32.0117 36.4257 33.6537C35.4506 33.3594 34.1528 33.3095 32.91 34.0557C32.9076 32.7195 32.7569 31.3877 32.4608 30.0847C32.3325 29.5391 31.7017 28.9943 31.6578 28.9659C29.2076 27.6672 23.3837 28.7034 20.066 29.7164C18.4496 30.2199 16.8647 30.8194 15.3196 31.5116C14.9384 28.4082 16.0744 25.069 19.8586 22.5241ZM19.0513 40.5405C19.0255 40.4974 18.998 40.4544 18.9713 40.4019C18.9291 40.3279 18.8852 40.247 18.8405 40.1618C18.8112 40.105 18.7811 40.0465 18.7544 39.9845C18.6933 39.8614 18.6305 39.7263 18.5677 39.5895L18.5186 39.4819C18.4704 39.3743 18.4222 39.2624 18.374 39.1471C18.1752 38.6729 17.9747 38.1393 17.7965 37.5885C17.7759 37.5283 17.7569 37.4672 17.738 37.4061C17.701 37.289 17.6657 37.1711 17.6313 37.0532C17.6124 36.9887 17.5943 36.9241 17.5762 36.8596C17.5581 36.795 17.5392 36.7245 17.5211 36.6573C17.5031 36.5902 17.4833 36.5136 17.4661 36.4413C17.4058 36.1995 17.3525 35.9594 17.3086 35.7244C17.2948 35.653 17.2827 35.5815 17.2707 35.511C17.1614 34.8509 17.1304 34.2459 17.2225 33.7768C17.2302 33.7355 17.2397 33.695 17.25 33.6555C17.25 33.6434 17.2569 33.6322 17.2595 33.6202C17.2621 33.6081 17.2681 33.5883 17.2733 33.5728C17.3043 33.4708 17.3461 33.3724 17.3981 33.2794C17.5289 33.1374 18.0599 32.769 19.2837 32.3043C19.3336 32.2845 19.3844 32.2655 19.4369 32.2466L19.6804 32.1606L19.8526 32.1012L19.9386 32.071C20.0574 32.0306 20.1813 31.9901 20.3104 31.9488L20.4085 31.9179L20.6099 31.855C23.4552 30.9858 26.5792 30.5279 28.6482 30.5994C28.9804 30.6076 29.3118 30.6364 29.6405 30.6854C29.7309 30.7001 29.8169 30.7156 29.8987 30.7336L30.0183 30.7612C30.057 30.7706 30.094 30.781 30.131 30.7913C30.168 30.8016 30.2033 30.8128 30.2378 30.824C30.2722 30.8352 30.3057 30.8472 30.3376 30.8593C30.3703 30.8713 30.4013 30.8842 30.4314 30.8972C30.4812 30.9853 30.523 31.0778 30.5562 31.1734C30.5682 31.2053 30.5803 31.2397 30.5915 31.275C30.6027 31.3103 30.6156 31.3481 30.6268 31.3868C30.6319 31.4066 30.638 31.4256 30.644 31.4462C30.6672 31.5263 30.6904 31.6123 30.7128 31.7044C30.7705 31.9368 30.8256 32.2036 30.8772 32.4953C30.885 32.5384 30.8927 32.5814 30.9004 32.6279C30.9082 32.6743 30.9159 32.72 30.9228 32.7673C30.9297 32.8146 30.9383 32.862 30.9452 32.9093C30.9521 32.9566 30.959 32.9954 30.965 33.0427C30.971 33.09 30.9779 33.1288 30.9848 33.177C30.9917 33.2251 30.9986 33.2742 31.0046 33.3241L31.0227 33.467C31.0295 33.5152 31.0356 33.5642 31.0407 33.6133C31.0625 33.7929 31.0823 33.9759 31.1001 34.1624C31.1053 34.214 31.1104 34.2656 31.1147 34.3181C31.1474 34.677 31.1724 35.0428 31.187 35.4017C31.187 35.4111 31.187 35.4197 31.187 35.4284C31.249 36.9086 31.1517 38.2874 30.7662 38.7753C30.6973 38.833 30.6173 38.8941 30.5269 38.9586C30.5046 38.975 30.4805 38.9913 30.4564 39.0068C30.3849 39.0559 30.3075 39.1067 30.2248 39.1575C30.1698 39.1927 30.113 39.2272 30.0527 39.2624C29.9933 39.2977 29.9314 39.3339 29.8668 39.3692C29.8023 39.4062 29.736 39.4423 29.6672 39.4785C27.3099 40.7367 22.4921 42.3185 19.4257 40.9768C19.3877 40.9653 19.3534 40.9443 19.3259 40.9157C19.2194 40.8023 19.1272 40.6763 19.0513 40.5405V40.5405ZM20.1314 54.1513C20.1337 54.1545 20.1358 54.158 20.1374 54.1616L20.1314 54.1513ZM47.5415 48.6889C47.0458 51.5393 46.0544 53.8983 43.3606 55.6884C38.566 58.5061 32.6604 58.6584 29.8393 58.2548C20.5497 56.9268 19.2785 47.8928 19.3612 42.5302C22.6152 43.705 27.6042 42.106 30.2748 40.6988C30.5837 41.1025 31.2215 41.5027 32.0485 41.7402C32.6071 41.9003 33.2611 40.846 33.7947 41.0018C34.837 41.3082 35.3955 42.2927 35.4712 42.0896C35.6726 41.5517 34.2096 39.6652 33.6906 39.4853C33.2904 39.3502 32.6578 39.3588 32.0322 39.4466C32.2663 39.0757 32.5666 38.0636 32.7499 36.6874C33.9548 35.6771 36.1649 35.6039 36.8809 35.7063C37.1822 36.9112 37.5006 37.987 37.7338 38.6204C37.826 38.8522 37.9799 39.0543 38.1788 39.2048C37.9865 39.2399 37.7994 39.2992 37.6219 39.3812C37.1589 39.6394 36.269 41.5784 36.5031 42.0362C36.5677 42.1619 36.8749 41.3581 37.6925 40.8761C38.0204 40.6833 38.6229 41.0706 39.0256 40.7789C39.3692 40.5356 39.6821 40.2519 39.9577 39.9337C41.9621 40.3684 44.7772 40.2496 46.2756 39.9862C47.3599 42.6017 48.1035 45.4564 47.5415 48.6889ZM46.3298 30.6932C46.6241 31.6717 46.8238 36.2287 46.4348 37.8966C46.4348 37.8966 46.2626 38.4991 45.7411 38.7676C43.5792 39.7694 39.3527 38.5955 39.1022 37.9173C38.3027 35.7313 37.7846 31.6734 38.3388 30.5469C38.437 30.4823 38.7287 30.342 39.3045 30.225C41.5636 29.7663 45.2841 29.5701 46.3298 30.6932ZM60.3313 38.5912L60.0731 27.2352C63.0432 27.8901 65.3143 29.8119 65.3143 33.1313C65.267 36.4052 63.5199 38.5912 60.3313 38.5912Z" fill="black"/>
<path d="M46.4348 37.8965C46.4348 37.8965 46.2626 38.499 45.7411 38.7675C43.5792 39.7692 39.3527 38.5954 39.1022 37.9172C38.3027 35.7312 37.7846 31.6733 38.3388 30.5468C38.437 30.4822 38.7287 30.3419 39.3045 30.2249C41.5636 29.7662 45.2815 29.57 46.3298 30.6931C46.6241 31.6716 46.8238 36.2329 46.4348 37.8965Z" fill="#FF9900"/>
</svg>
